<svg width="45" height="44" class="logo" viewBox="0 0 45 44" fill="none" xmlns="http://www.w3.org/2000/svg">
            <path d="M21.8839 36.3624L28.2085 34.0196V17.3735C28.2085 16.6034 28.2916 15.924 28.4578 15.3352C28.5742 14.9074 28.7561 14.5001 28.9971 14.1279C29.0218 14.0904 29.0473 14.0535 29.0736 14.0171C29.3799 13.5913 29.7568 13.291 30.2043 13.1161C30.5352 12.9909 30.8867 12.929 31.2405 12.9336C31.2856 12.9338 31.3306 12.9349 31.3757 12.9368C32.6443 12.9846 33.409 13.7233 33.6696 15.1527C33.7397 15.5628 33.773 15.9783 33.769 16.3943V31.9598L40.0692 29.626V15.798C40.0712 15.1971 40.0397 14.5965 39.9747 13.9992C39.8878 13.2269 39.7411 12.5241 39.5348 11.8908C39.3026 11.1442 38.9426 10.4435 38.4709 9.81992C37.4054 8.44368 35.8381 7.75555 33.769 7.75555C33.7038 7.75514 33.6387 7.75568 33.5735 7.75718C32.3263 7.76979 31.1252 8.23071 30.1896 9.05576C29.2137 9.90558 28.5222 11.0345 28.2085 12.29V1.62109H21.8839V36.3624Z" fill="white" fill-opacity="0.55"/>
            <path d="M16.5385 20.0945V18.1377C16.5385 14.4141 15.8901 11.7529 14.5932 10.1539C13.6819 9.02969 12.3987 8.30029 10.7434 7.96574C9.98706 7.81979 9.21809 7.74938 8.44783 7.75555C7.74098 7.75158 7.03493 7.80388 6.33638 7.91197C2.11238 8.59086 0.000385022 11.4661 0.000385022 16.5377C-0.0164698 18.629 0.52033 20.6876 1.55628 22.5043C2.31935 23.817 3.28424 25.0013 4.41554 26.0139C4.43757 26.0353 4.45984 26.0565 4.48234 26.0775C4.70174 26.2882 5.23992 26.7759 6.09689 27.5406L6.43902 27.8453C7.18194 28.509 7.5811 28.8691 7.63649 28.9255C7.66046 28.9477 7.68435 28.97 7.70817 28.9923C8.44783 29.6875 9.06042 30.4028 9.54592 31.1382C10.4387 32.4408 10.9211 33.981 10.9307 35.5602C10.9307 36.4954 10.8395 37.2422 10.657 37.8005C10.587 38.0252 10.4861 38.2391 10.3573 38.436C10.2653 38.5725 10.1551 38.6959 10.0298 38.8026C9.65399 39.123 9.14296 39.2832 8.49671 39.2832C7.17162 39.2832 6.38743 38.2225 6.14413 36.1012C6.08635 35.5725 6.05861 35.041 6.06104 34.5093V31.6221H0.119317V33.9374C0.119238 34.165 0.121953 34.3926 0.127463 34.6201C0.177426 36.6426 0.451676 38.3377 0.950214 39.7052C1.23287 40.5177 1.65399 41.2751 2.19493 41.944C2.61509 42.4491 3.56249 43.1484 3.56249 43.1484L16.8587 38.2239C16.8587 38.2239 17.1592 37.221 17.1592 35.2734C17.15 32.6849 16.3658 30.1584 14.9077 28.0196C14.0571 26.7514 13.0584 25.5891 11.9327 24.5573L8.54396 21.4778C8.01075 20.9724 7.53636 20.4083 7.12981 19.7964C6.40992 18.7359 6.02147 17.4854 6.0138 16.2037C6.01357 16.0673 6.01628 15.931 6.02194 15.7947C6.0643 14.816 6.26469 14.1089 6.62312 13.6733C6.74162 13.5288 6.88176 13.4035 7.03857 13.3018C7.41763 13.0563 7.90748 12.9336 8.50812 12.9336C9.35965 12.9336 9.96843 13.3273 10.3345 14.1149C10.6994 14.9024 10.8819 16.1081 10.8819 17.732V20.0945H16.5385Z" fill="white" fill-opacity="0.55"/>
            <path d="M24.3488 35.5519L30.6734 33.209L30.6734 16.563C30.6734 15.7929 30.7565 15.1134 30.9226 14.5247C31.039 14.0968 31.221 13.6896 31.4619 13.3173C31.4867 13.2799 31.5122 13.243 31.5385 13.2066C31.8448 12.7808 32.2217 12.4804 32.6691 12.3055C33.0001 12.1804 33.3516 12.1185 33.7053 12.123C33.7504 12.1233 33.7955 12.1244 33.8405 12.1263C35.1092 12.1741 35.8738 12.9127 36.1345 14.3422C36.2046 14.7523 36.2378 15.1678 36.2339 15.5838L36.2339 31.1492L42.534 28.8155L42.534 14.9874C42.5361 14.3865 42.5045 13.786 42.4395 13.1886C42.3526 12.4163 42.206 11.7135 41.9996 11.0803C41.7674 10.3336 41.4075 9.63295 40.9358 9.00938C39.8703 7.63313 38.303 6.94501 36.2339 6.94501C36.1687 6.94459 36.1035 6.94513 36.0384 6.94664C34.7911 6.95924 33.59 7.42017 32.6545 8.24522C31.6786 9.09503 30.9871 10.224 30.6734 11.4795L30.6734 0.810547L24.3488 0.810547L24.3488 35.5519Z" fill="white" fill-opacity="0.55"/>
            <path d="M19.0033 19.284L19.0033 17.3272C19.0033 13.6036 18.3549 10.9423 17.0581 9.34339C16.1468 8.21915 14.8635 7.48975 13.2082 7.15519C12.4519 7.00924 11.6829 6.93883 10.9127 6.94501C10.2058 6.94103 9.49978 6.99334 8.80122 7.10142C4.57723 7.78031 2.46523 10.6556 2.46523 15.7271C2.44837 17.8185 2.98517 19.877 4.02112 21.6938C4.78419 23.0064 5.74909 24.1908 6.88039 25.2034C6.90241 25.2248 6.92468 25.246 6.94718 25.2669C7.16659 25.4776 7.70477 25.9654 8.56173 26.7301L8.90387 27.0347C9.64678 27.6984 10.0459 28.0585 10.1013 28.115C10.1253 28.1372 10.1492 28.1595 10.173 28.1818C10.9127 28.877 11.5253 29.5923 12.0108 30.3276C12.9036 31.6303 13.3859 33.1704 13.3956 34.7497C13.3956 35.6849 13.3044 36.4317 13.1219 36.99C13.0519 37.2147 12.951 37.4285 12.8221 37.6254C12.7301 37.762 12.62 37.8853 12.4946 37.992C12.1188 38.3125 11.6078 38.4727 10.9616 38.4727C9.63647 38.4727 8.85227 37.412 8.60898 35.2906C8.5512 34.762 8.52345 34.2305 8.52589 33.6987L8.52589 30.8116L2.58416 30.8116L2.58416 33.1268C2.58408 33.3544 2.5868 33.582 2.59231 33.8095C2.64227 35.8321 2.91652 37.5271 3.41506 38.8947C3.69772 39.7072 4.11884 40.4646 4.65977 41.1334C5.07993 41.6385 6.02734 42.3379 6.02734 42.3379L19.3236 37.4134C19.3236 37.4134 19.6241 36.4105 19.6241 34.4629C19.6149 31.8743 18.8306 29.3478 17.3725 27.2091C16.5219 25.9408 15.5233 24.7785 14.3976 23.7467L11.0088 20.6673C10.4756 20.1619 10.0012 19.5978 9.59465 18.9858C8.87477 17.9254 8.48632 16.6748 8.47864 15.3931C8.47841 15.2568 8.48113 15.1204 8.48679 14.9842C8.52915 14.0055 8.72954 13.2983 9.08797 12.8628C9.20646 12.7182 9.3466 12.5929 9.50341 12.4913C9.88248 12.2458 10.3723 12.123 10.973 12.123C11.8245 12.123 12.4333 12.5168 12.7993 13.3043C13.1642 14.0918 13.3467 15.2975 13.3467 16.9214L13.3467 19.284L19.0033 19.284Z" fill="white" fill-opacity="0.55"/>
            <path d="M26.8136 34.7413L33.1382 32.3985L33.1382 15.7524C33.1382 14.9823 33.2213 14.3029 33.3875 13.7141C33.5039 13.2863 33.6858 12.879 33.9267 12.5068C33.9515 12.4693 33.977 12.4324 34.0033 12.396C34.3096 11.9702 34.6865 11.6699 35.134 11.495C35.4649 11.3698 35.8164 11.3079 36.1702 11.3125C36.2153 11.3127 36.2603 11.3138 36.3054 11.3158C37.574 11.3635 38.3386 12.1022 38.5993 13.5317C38.6694 13.9417 38.7027 14.3572 38.6987 14.7732L38.6987 30.3387L44.9989 28.0049L44.9989 14.1769C45.0009 13.576 44.9694 12.9754 44.9044 12.3781C44.8175 11.6058 44.6708 10.903 44.4645 10.2697C44.2323 9.52309 43.8723 8.8224 43.4006 8.19883C42.3351 6.82258 40.7678 6.13446 38.6987 6.13446C38.6335 6.13404 38.5684 6.13459 38.5032 6.13609C37.2559 6.14869 36.0548 6.60962 35.1193 7.43467C34.1434 8.28449 33.4519 9.41341 33.1382 10.6689L33.1382 -2.51624e-07L26.8136 -1.95208e-07L26.8136 34.7413Z" fill="white"/>
            <path d="M21.4682 18.4734L21.4682 16.5166C21.4682 12.793 20.8198 10.1318 19.5229 8.53284C18.6116 7.4086 17.3284 6.6792 15.6731 6.34464C14.9167 6.19869 14.1478 6.12829 13.3775 6.13446C12.6707 6.13049 11.9646 6.18279 11.2661 6.29088C7.04207 6.96977 4.93007 9.84501 4.93007 14.9166C4.91322 17.0079 5.45002 19.0665 6.48597 20.8832C7.24904 22.1959 8.21393 23.3802 9.34523 24.3928C9.36726 24.4143 9.38953 24.4354 9.41203 24.4564C9.63143 24.6671 10.1696 25.1548 11.0266 25.9195L11.3687 26.2242C12.1116 26.8879 12.5108 27.248 12.5662 27.3045C12.5901 27.3266 12.614 27.3489 12.6379 27.3713C13.3775 28.0664 13.9901 28.7817 14.4756 29.5171C15.3684 30.8197 15.8507 32.3599 15.8604 33.9391C15.8604 34.8744 15.7692 35.6211 15.5867 36.1795C15.5167 36.4041 15.4158 36.618 15.287 36.8149C15.195 36.9514 15.0848 37.0748 14.9595 37.1815C14.5837 37.5019 14.0727 37.6622 13.4264 37.6622C12.1013 37.6622 11.3171 36.6015 11.0738 34.4801C11.016 33.9514 10.9883 33.42 10.9907 32.8882L10.9907 30.001L5.04901 30.001L5.04901 32.3163C5.04893 32.5439 5.05164 32.7715 5.05715 32.999C5.10711 35.0215 5.38136 36.7166 5.8799 38.0842C6.16256 38.8966 6.58368 39.654 7.12462 40.3229C7.54478 40.828 8.49218 41.5273 8.49218 41.5273L21.7884 36.6028C21.7884 36.6028 22.0889 35.6 22.0889 33.6524C22.0797 31.0638 21.2955 28.5373 19.8373 26.3985C18.9868 25.1303 17.9881 23.968 16.8624 22.9362L13.4736 19.8567C12.9404 19.3513 12.466 18.7872 12.0595 18.1753C11.3396 17.1148 10.9512 15.8643 10.9435 14.5826C10.9433 14.4462 10.946 14.3099 10.9516 14.1736C10.994 13.1949 11.1944 12.4878 11.5528 12.0522C11.6713 11.9077 11.8114 11.7824 11.9683 11.6807C12.3473 11.4352 12.8372 11.3125 13.4378 11.3125C14.2893 11.3125 14.8981 11.7063 15.2641 12.4938C15.6291 13.2813 15.8116 14.487 15.8116 16.1109L15.8116 18.4734L21.4682 18.4734Z" fill="white"/>
        </svg>
